<?xml version="1.0" standalone="no"?>
<!DOCTYPE svg PUBLIC "-//W3C//DTD SVG 20010904//EN"
 "http://www.w3.org/TR/2001/REC-SVG-20010904/DTD/svg10.dtd">
<svg version="1.0" xmlns="http://www.w3.org/2000/svg"
 width="1000.000000pt" height="1000.000000pt" viewBox="0 0 1000.000000 1000.000000"
 preserveAspectRatio="xMidYMid meet">
<metadata>
Created by potrace 1.14, written by Peter Selinger 2001-2017
</metadata>
<g transform="translate(0.000000,1000.000000) scale(0.100000,-0.100000)"
fill="#000000" stroke="none">
<path d="M6270 9803 c0 -4 -87 -8 -193 -8 -225 0 -286 -6 -298 -28 -7 -11 -18
-14 -43 -10 -18 3 -36 1 -40 -5 -3 -6 -14 -8 -24 -6 -9 3 -28 1 -42 -5 -20 -8
-21 -10 -6 -10 15 -1 16 -4 6 -16 -7 -8 -16 -13 -20 -10 -5 3 -11 1 -15 -5 -3
-5 -18 -10 -32 -10 -21 0 -24 2 -13 15 18 22 -6 20 -56 -4 -22 -11 -53 -23
-67 -27 -15 -3 -32 -14 -37 -24 -6 -11 -17 -16 -29 -13 -24 6 -64 -15 -55 -29
5 -7 2 -8 -5 -3 -13 7 -74 -42 -66 -55 2 -3 -1 -12 -7 -20 -8 -12 -9 -12 -4 3
8 26 -7 21 -42 -16 -29 -30 -31 -35 -17 -53 18 -24 19 -38 3 -28 -9 5 -9 2 1
-9 7 -9 9 -17 4 -17 -12 0 -11 -49 1 -69 5 -7 5 -16 0 -20 -5 -3 -11 -24 -12
-46 -2 -22 -10 -47 -18 -56 -8 -8 -14 -19 -14 -24 0 -5 7 0 15 11 8 10 15 15
15 10 0 -5 -16 -26 -35 -47 -38 -43 -44 -75 -17 -95 12 -10 13 -13 3 -14 -11
0 -11 -3 -1 -15 7 -9 8 -15 2 -15 -5 0 -9 -16 -7 -35 2 -19 0 -33 -5 -30 -5 3
-11 1 -15 -5 -3 -5 -3 -10 2 -10 4 0 8 -13 9 -30 1 -16 -2 -27 -6 -25 -4 2
-14 -24 -23 -58 -25 -98 -27 -114 -21 -131 6 -15 8 -15 20 1 12 16 12 14 3
-15 -6 -17 -15 -35 -20 -38 -5 -3 -7 -9 -4 -14 10 -16 29 -174 26 -223 -1 -32
2 -46 9 -42 5 3 10 2 10 -4 0 -6 -9 -15 -20 -21 -11 -6 -20 -17 -20 -24 0 -8
-11 -21 -25 -30 -33 -22 -32 -60 2 -94 21 -21 29 -43 40 -112 26 -163 61 -233
142 -284 66 -42 202 -63 287 -46 33 7 66 14 74 15 8 2 15 4 15 5 0 1 7 3 15 5
8 1 31 9 50 17 42 18 82 93 125 230 19 64 32 89 46 93 36 12 59 -17 100 -125
22 -58 52 -123 68 -145 41 -58 109 -108 137 -101 12 3 41 -1 64 -9 99 -35 266
-10 349 52 24 18 30 20 19 7 -23 -26 -22 -31 2 -82 11 -23 22 -54 24 -69 2
-16 7 -36 11 -45 7 -17 -9 -26 -18 -10 -2 4 -2 0 0 -8 11 -36 11 -50 2 -50 -5
0 -7 -11 -5 -25 3 -14 1 -23 -5 -20 -5 4 -9 -2 -9 -11 0 -14 -3 -15 -12 -6
-19 19 -29 14 -16 -8 11 -17 10 -22 -1 -29 -12 -8 -12 -12 2 -26 10 -9 17 -22
16 -28 0 -9 -2 -8 -6 1 -2 6 -9 12 -14 12 -6 0 -7 -6 -3 -12 6 -10 4 -10 -7 0
-25 23 -37 14 -34 -25 2 -25 -4 -47 -16 -65 -11 -14 -19 -31 -19 -36 0 -6 -4
-13 -9 -17 -6 -3 -9 4 -8 15 1 11 5 20 9 20 4 0 8 5 8 11 0 5 -4 8 -9 4 -6 -3
-8 15 -5 45 5 55 -12 89 -67 129 -25 19 -28 19 -23 4 5 -17 5 -17 -9 0 -19 23
-30 22 -17 -3 13 -24 2 -27 -15 -3 -17 23 -51 26 -59 5 -3 -9 -9 -23 -12 -29
-3 -8 2 -13 14 -13 15 0 18 -5 14 -25 -3 -20 -7 -23 -18 -14 -8 6 -14 7 -14 2
0 -5 -44 -10 -97 -11 -54 -1 -141 -2 -193 -4 -95 -2 -169 6 -180 20 -3 4 -14
8 -25 9 -11 1 -33 4 -48 8 -22 4 -27 3 -21 -7 6 -10 5 -10 -7 -1 -8 6 -18 11
-24 11 -20 1 -14 18 6 19 12 1 26 8 30 15 7 10 9 9 9 -3 0 -18 57 -32 66 -17
3 4 10 8 15 8 6 0 7 -5 4 -10 -8 -13 61 -11 87 2 9 4 19 4 22 -1 3 -5 15 -11
26 -14 18 -5 19 -3 8 10 -12 14 -11 15 9 5 28 -15 46 -15 37 0 -5 8 0 9 14 6
12 -4 25 -2 28 3 3 5 10 6 16 3 7 -5 8 -2 3 5 -4 7 -16 11 -26 8 -10 -3 -24 2
-31 11 -11 13 -11 14 1 8 9 -6 12 -4 9 5 -3 8 -13 16 -23 17 -12 3 -15 0 -9
-10 6 -11 5 -11 -9 1 -9 7 -30 11 -47 9 -16 -3 -30 -1 -30 3 0 10 -59 33 -67
26 -3 -4 5 -11 18 -16 14 -6 18 -10 8 -10 -8 -1 -47 19 -85 43 -38 24 -80 47
-94 51 -24 7 -24 7 -7 -12 9 -11 14 -23 10 -26 -3 -4 -1 -7 6 -7 7 0 10 -4 7
-9 -3 -5 -15 -7 -26 -4 -12 3 -20 0 -20 -8 0 -7 -3 -10 -6 -7 -3 4 -1 16 6 27
6 12 7 21 2 21 -5 0 -14 -10 -20 -22 -8 -18 -11 -19 -11 -5 -1 22 -7 22 -39
-4 -19 -15 -28 -17 -31 -8 -2 7 1 15 8 17 14 5 15 32 1 32 -6 0 -9 -6 -8 -12
2 -7 -3 -12 -10 -10 -7 1 -27 -13 -44 -32 -24 -26 -36 -33 -48 -26 -14 7 -16
4 -15 -19 1 -16 -4 -37 -12 -47 -10 -13 -13 -14 -13 -3 -1 11 -4 10 -14 -3
-18 -24 -25 -23 -19 2 3 12 2 20 -3 18 -12 -4 -48 23 -61 45 -9 17 -11 16 -25
-13 l-15 -32 -5 26 c-3 14 -2 23 2 21 4 -3 8 7 8 20 0 26 -12 33 -23 15 -3 -5
-10 -10 -16 -10 -5 0 0 9 11 20 24 24 26 40 4 40 -13 0 -15 8 -12 35 2 19 0
35 -4 35 -4 0 -8 -4 -8 -10 0 -5 -7 -7 -15 -4 -14 6 -24 51 -34 162 0 6 -5 12
-11 12 -10 0 -6 -91 6 -140 3 -14 10 -77 15 -140 15 -204 65 -349 166 -476 17
-21 37 -58 45 -82 8 -23 18 -39 23 -35 5 5 3 -1 -5 -12 -8 -11 -11 -17 -6 -13
11 9 35 -14 29 -29 -3 -7 2 -16 11 -19 12 -5 14 -10 6 -19 -8 -9 -8 -15 0 -20
5 -3 10 -1 10 4 0 6 5 11 10 11 6 0 10 -9 10 -20 0 -11 -4 -20 -10 -20 -5 0
-10 -8 -10 -17 0 -14 2 -15 9 -4 6 9 11 10 15 2 4 -6 12 -9 17 -6 5 4 9 -1 9
-10 0 -9 4 -14 8 -11 5 3 16 -8 25 -23 15 -26 15 -28 -3 -44 -11 -9 -20 -22
-21 -29 -2 -28 -7 -54 -14 -71 -5 -13 -4 -18 6 -17 34 5 40 1 27 -20 -7 -11
-18 -20 -24 -20 -14 0 -63 39 -50 40 5 0 17 -7 27 -16 10 -9 23 -13 28 -9 16
9 13 25 -3 19 -7 -3 -27 11 -45 32 -18 20 -35 33 -38 30 -4 -3 2 -15 11 -25
10 -11 15 -25 11 -31 -4 -6 -1 -19 7 -28 15 -18 16 -27 4 -54 -4 -9 -2 -27 5
-40 8 -15 14 -19 17 -10 2 8 -1 19 -7 25 -22 22 -10 25 26 6 21 -10 44 -19 53
-18 8 0 -5 10 -30 21 -39 18 -43 27 -13 31 5 0 14 7 21 14 7 7 21 13 30 12 14
0 13 -3 -5 -16 -27 -19 -20 -27 57 -65 30 -16 48 -28 40 -28 -8 0 -22 4 -30
10 -9 5 -19 5 -27 -2 -10 -8 -12 -7 -8 5 4 8 1 18 -6 23 -8 4 -10 3 -5 -4 5
-8 -1 -12 -16 -13 -13 0 -17 -3 -10 -6 16 -6 67 -53 58 -53 -3 0 -15 5 -26 12
-10 7 -22 9 -26 5 -11 -11 -1 -16 40 -21 34 -4 37 -3 33 15 -3 10 -2 19 1 19
15 0 86 -49 71 -50 -8 0 -21 6 -28 13 -9 8 -12 8 -7 0 4 -7 -5 -14 -24 -18
-38 -8 -29 -26 10 -20 17 3 45 7 63 9 l32 5 -30 -14 -30 -14 27 -1 c23 0 26
-4 22 -24 -3 -18 1 -26 16 -31 11 -3 20 -11 20 -16 0 -6 5 -7 10 -4 6 3 10 2
10 -3 0 -6 16 -13 36 -16 24 -5 34 -12 31 -20 -3 -8 0 -13 6 -12 7 0 12 -3 12
-9 0 -5 -10 -10 -23 -10 -22 1 -23 0 -5 -12 10 -8 28 -16 41 -20 12 -3 22 -10
22 -15 0 -6 -9 -8 -20 -5 -11 3 -18 1 -14 -4 12 -20 -30 -7 -71 21 -24 17 -47
30 -52 30 -4 0 -19 9 -33 20 -18 15 -20 18 -6 13 14 -4 17 -3 12 6 -5 7 -14
10 -22 7 -17 -6 -125 65 -117 77 3 5 17 -2 32 -15 l26 -23 -24 27 c-13 15 -28
25 -33 22 -5 -3 -12 3 -15 14 -3 13 -11 18 -19 15 -8 -3 -14 0 -14 7 0 6 -5 8
-12 4 -6 -4 -8 -3 -5 3 4 6 -3 19 -15 29 -12 11 -18 14 -15 8 4 -7 0 -14 -8
-18 -18 -6 -75 86 -75 121 0 12 -4 25 -10 28 -18 11 -10 -39 14 -90 13 -27 36
-62 52 -76 24 -22 171 -121 334 -224 46 -28 90 -40 90 -23 0 7 12 1 25 -14 31
-36 -11 -52 415 158 183 90 354 201 429 278 30 30 52 58 49 61 -3 3 -17 -9
-31 -28 -35 -47 -125 -114 -177 -132 -24 -9 -53 -25 -63 -36 -10 -11 -22 -18
-25 -15 -3 4 3 13 14 21 11 8 14 15 7 15 -22 0 -14 20 7 20 11 0 20 4 20 10 0
5 -8 7 -17 4 -12 -4 -10 0 6 14 16 13 20 21 11 24 -8 2 -2 15 18 35 16 18 27
35 24 38 -3 3 3 5 14 5 10 0 15 4 9 8 -17 12 -11 45 9 52 14 4 16 9 8 14 -7 4
-16 4 -22 1 -5 -3 -10 -1 -10 6 0 6 8 9 19 6 13 -3 28 4 43 20 l23 24 -27 -10
c-21 -8 -28 -7 -32 6 -4 9 1 24 10 34 19 22 13 24 -19 8 -22 -11 -22 -11 1 10
26 26 29 46 5 37 -15 -6 -15 -4 2 14 10 11 24 20 32 20 7 0 13 5 13 10 0 6 -9
10 -21 10 -12 0 -17 4 -14 11 4 6 10 8 13 5 3 -4 16 1 29 9 13 9 34 14 46 11
12 -3 16 -3 9 0 -10 5 -8 12 9 30 23 25 21 34 -3 10 -8 -7 -25 -17 -38 -21
-25 -7 -25 -7 3 19 17 15 26 33 23 41 -3 8 -2 15 2 15 4 0 8 9 8 19 0 16 -4
18 -21 10 -20 -10 -20 -10 -1 5 11 9 24 16 29 16 5 0 7 6 5 12 -3 7 1 19 9 26
7 8 11 25 8 40 -4 18 -3 21 2 10 8 -16 9 -16 21 3 8 12 9 18 3 14 -14 -8 -14
8 0 22 6 6 11 27 11 47 0 20 4 36 9 36 5 0 6 13 3 30 -5 21 -2 31 9 36 16 6
32 91 30 152 -1 17 3 32 9 32 6 0 8 9 5 20 -3 11 -1 23 4 26 5 3 9 10 9 15 0
6 -5 7 -11 3 -7 -4 -9 0 -6 12 23 83 24 194 1 261 -29 89 -94 209 -133 248
-46 44 -53 78 -20 96 16 8 27 8 45 -1 21 -12 27 -9 76 45 29 32 58 67 65 79
27 46 10 42 -39 -11 -49 -51 -55 -55 -90 -50 -23 3 -38 1 -38 -5 0 -19 -28 12
-34 37 -4 14 -11 25 -16 25 -6 0 -10 5 -10 11 0 10 -24 39 -33 39 -3 0 -3 -10
1 -22 l5 -22 -27 22 c-29 22 -46 21 -46 -1 0 -10 -53 -13 -222 -13 -176 0
-239 -3 -298 -17 -185 -43 -192 -43 -287 -18 -218 58 -253 64 -415 65 -133 1
-158 3 -159 16 0 8 -2 30 -5 48 -2 18 1 43 7 54 10 18 12 99 6 260 0 20 -5 34
-9 32 -15 -9 -8 13 7 26 9 7 14 18 12 24 -2 6 2 23 10 39 7 15 9 27 4 27 -14
0 61 143 78 148 8 3 11 0 8 -5 -3 -5 0 -10 8 -10 11 0 12 4 4 14 -16 19 13 28
50 15 16 -6 39 -8 51 -5 13 3 25 0 30 -7 6 -10 20 -10 71 3 60 15 158 15 182
0 6 -3 7 -1 3 5 -4 7 7 11 34 10 25 0 37 -4 33 -11 -3 -5 -1 -7 5 -3 6 3 32 9
58 12 26 3 57 12 69 20 18 12 24 12 28 2 4 -10 8 -10 16 2 8 10 13 12 19 4 4
-6 17 -13 30 -17 18 -4 22 -2 18 9 -3 9 -2 12 5 9 5 -4 21 -8 35 -10 18 -2 24
2 20 12 -4 9 -2 11 6 6 18 -10 48 -11 48 -1 0 4 -5 8 -12 8 -6 0 -9 2 -7 5 3
2 21 0 40 -5 27 -8 41 -7 67 7 26 15 36 15 52 5 17 -10 20 -10 20 3 0 8 9 19
20 25 11 6 20 7 20 3 0 -13 64 -13 72 0 5 8 8 5 8 -8 1 -19 1 -19 14 -2 15 20
38 23 30 4 -3 -9 4 -12 23 -11 16 1 28 3 28 4 0 1 21 3 48 5 26 1 47 -1 47 -6
0 -4 16 -13 35 -20 19 -7 35 -17 35 -23 0 -5 3 -6 7 -3 3 4 17 -8 30 -25 25
-35 28 -42 13 -33 -5 3 -10 1 -10 -5 0 -6 7 -13 16 -17 8 -3 13 -12 10 -19 -3
-7 -1 -16 4 -19 6 -4 10 -14 10 -24 0 -9 6 -23 12 -29 7 -7 18 -35 24 -63 9
-42 9 -49 -2 -45 -18 7 -17 -2 1 -34 19 -33 19 -46 0 -30 -12 10 -15 10 -15
-3 0 -9 6 -20 14 -24 7 -4 27 -34 44 -66 22 -40 32 -52 35 -40 4 17 5 17 6 1
0 -10 -9 -28 -21 -40 -16 -16 -20 -17 -15 -5 7 20 -1 47 -14 47 -11 0 -1 -50
12 -65 5 -5 9 -16 8 -25 0 -10 -2 -11 -6 -2 -8 21 -25 13 -23 -10 3 -36 0 -44
-10 -28 -8 13 -12 12 -27 -4 -17 -18 -17 -19 1 -12 15 5 17 4 7 -8 -15 -18 4
-26 42 -19 32 6 43 21 28 36 -6 6 -11 15 -11 21 0 5 6 1 14 -10 23 -30 40 -4
39 58 -1 41 1 49 9 34 5 -10 7 -31 4 -47 -6 -33 -5 -34 32 -15 15 7 60 17 100
21 64 6 72 9 73 29 1 11 3 28 4 36 1 8 3 23 4 33 0 9 7 17 15 17 17 0 29 36
46 133 10 52 10 94 0 185 -6 64 -16 128 -21 142 -5 14 -11 55 -13 92 -4 72
-11 92 -28 82 -7 -4 -8 -2 -4 5 11 18 -14 42 -35 36 -11 -4 -19 -2 -19 5 0 6
5 8 10 5 6 -3 10 -3 10 1 0 10 -73 104 -81 104 -17 0 -89 80 -95 106 -8 36
-52 84 -76 84 -10 0 -18 7 -18 15 0 8 -8 15 -19 15 -10 0 -24 7 -31 15 -7 8
-18 15 -25 15 -7 0 -43 23 -81 51 -127 95 -130 97 -234 104 -52 3 -103 9 -112
11 -10 3 -18 2 -18 -3z m-420 -33 c0 -5 -7 -10 -16 -10 -8 0 -12 5 -9 10 3 6
10 10 16 10 5 0 9 -4 9 -10z m60 0 c-20 -13 -33 -13 -25 0 3 6 14 10 23 10 15
0 15 -2 2 -10z m-179 -38 c-11 -21 -53 -28 -45 -7 5 12 20 20 47 24 4 0 3 -7
-2 -17z m809 8 c0 -5 -4 -10 -10 -10 -5 0 -10 5 -10 10 0 6 5 10 10 10 6 0 10
-4 10 -10z m-1330 -230 c0 -5 -2 -10 -4 -10 -3 0 -8 5 -11 10 -3 6 -1 10 4 10
6 0 11 -4 11 -10z m-20 -45 c0 -5 -5 -3 -10 5 -5 8 -10 20 -10 25 0 6 5 3 10
-5 5 -8 10 -19 10 -25z m1795 -95 c3 -6 -1 -7 -9 -4 -18 7 -21 14 -7 14 6 0
13 -4 16 -10z m30 -40 c16 -17 16 -20 3 -15 -9 4 -19 13 -22 21 -7 19 -2 18
19 -6z m-672 -70 c-3 -12 -8 -19 -11 -16 -5 6 5 36 12 36 2 0 2 -9 -1 -20z
m-573 -43 c0 -12 0 -11 -24 28 l-17 30 20 -24 c12 -13 21 -28 21 -34z m741 10
c-10 -9 -11 -8 -5 6 3 10 9 15 12 12 3 -3 0 -11 -7 -18z m-967 -47 l7 -25 -15
25 c-17 28 -21 50 -7 35 5 -6 12 -21 15 -35z m1086 -110 c8 -5 11 -10 5 -10
-5 0 -17 5 -25 10 -8 5 -10 10 -5 10 6 0 17 -5 25 -10z m365 -78 c-3 -3 -11 0
-18 7 -9 10 -8 11 6 5 10 -3 15 -9 12 -12z m-165 -48 c0 -2 -13 2 -30 11 -16
9 -30 18 -30 21 0 2 14 -2 30 -11 17 -9 30 -18 30 -21z m60 -83 c0 -9 -7 -3
-15 13 -19 36 -19 47 0 22 8 -11 15 -27 15 -35z m-1799 -8 c-12 -20 -14 -14
-5 12 4 9 9 14 11 11 3 -2 0 -13 -6 -23z m1900 -50 c13 -16 12 -17 -3 -4 -10
7 -18 15 -18 17 0 8 8 3 21 -13z m-47 -9 c3 -8 2 -12 -4 -9 -6 3 -10 10 -10
16 0 14 7 11 14 -7z m175 -154 c6 0 11 -4 11 -8 0 -4 -9 -8 -20 -8 -10 0 -17
2 -15 4 2 3 -2 11 -10 19 -8 8 -15 20 -15 26 1 7 9 2 19 -10 11 -13 24 -23 30
-23z m11 30 c0 -5 -4 -10 -10 -10 -5 0 -10 5 -10 10 0 6 5 10 10 10 6 0 10 -4
10 -10z m-2058 -52 c-7 -7 -12 -8 -12 -2 0 14 12 26 19 19 2 -3 -1 -11 -7 -17z
m1858 -62 c0 -3 -4 -8 -10 -11 -5 -3 -10 -1 -10 4 0 6 5 11 10 11 6 0 10 -2
10 -4z m150 -21 c0 -8 -2 -15 -4 -15 -2 0 -6 7 -10 15 -3 8 -1 15 4 15 6 0 10
-7 10 -15z m-1553 -282 c22 -8 21 -9 -13 -51 -28 -33 -42 -42 -67 -42 -18 0
-49 -4 -69 -9 -31 -7 -46 -4 -85 15 -26 14 -57 34 -70 46 -28 26 -34 21 -39
-32 -3 -32 3 -51 26 -88 16 -26 25 -48 20 -50 -6 -2 -10 -8 -10 -14 0 -6 12
-8 30 -4 22 4 29 2 24 -6 -4 -7 -3 -8 5 -4 6 4 9 12 6 17 -4 5 -2 9 4 9 5 0
13 -4 16 -10 3 -5 11 -10 18 -10 6 0 2 7 -9 15 -19 15 -19 15 1 31 14 10 34
14 65 11 25 -3 53 -1 63 4 11 6 17 6 17 -1 0 -5 -6 -10 -12 -11 -10 0 -10 -2
-1 -5 7 -3 22 0 34 6 15 8 24 9 32 1 7 -7 14 -7 23 0 7 6 18 8 25 4 8 -6 7
-10 -2 -16 -9 -6 2 -9 31 -10 l45 0 -45 -21 c-32 -15 -65 -21 -117 -21 -40 0
-70 -4 -67 -9 3 -4 10 -6 15 -3 5 4 9 1 9 -6 0 -8 21 -10 75 -7 41 3 72 1 69
-4 -10 -15 6 -8 27 13 11 11 24 17 27 13 4 -3 1 -9 -5 -11 -28 -10 -11 -21 18
-13 38 11 36 9 44 42 5 18 2 28 -7 31 -7 2 -5 3 4 2 9 -2 19 5 22 14 3 9 2 -4
-1 -29 -7 -61 -54 -150 -97 -188 -109 -95 -385 -70 -439 40 -29 60 -52 201
-40 251 l11 42 2 -60 c2 -59 2 -60 11 -20 4 22 8 59 8 82 1 39 3 42 44 57 23
8 56 17 72 20 44 6 226 -1 252 -11z m627 -25 c-32 -56 -45 -66 -102 -77 -52
-10 -59 -14 -57 -34 1 -12 4 -23 5 -24 2 -3 6 -15 9 -30 1 -5 5 -2 10 6 8 12
11 12 25 -1 8 -9 12 -18 9 -22 -4 -3 5 -6 18 -6 309 -6 335 -8 377 -26 46 -20
58 -44 18 -37 -13 3 -32 0 -43 -6 -15 -9 -12 -10 20 -11 31 0 39 -4 48 -26 11
-32 5 -42 -16 -24 -10 8 -15 9 -15 1 0 -6 5 -11 11 -11 5 0 9 -8 8 -17 -4 -45
0 -55 24 -47 22 7 22 7 3 -15 -32 -35 -116 -54 -220 -49 -99 5 -174 30 -211
71 -11 13 -15 16 -10 7 9 -13 8 -13 -7 -1 -10 7 -15 17 -12 23 3 5 -1 19 -9
32 -8 12 -29 62 -46 110 -27 75 -30 94 -21 125 5 21 18 45 27 53 19 17 77 35
128 41 17 2 31 5 33 6 2 0 0 -5 -4 -11z m371 -28 c3 -5 2 -10 -4 -10 -5 0 -13
5 -16 10 -3 6 -2 10 4 10 5 0 13 -4 16 -10z m-815 -45 c0 -5 -5 -3 -10 5 -5 8
-10 20 -10 25 0 6 5 3 10 -5 5 -8 10 -19 10 -25z m607 20 c29 0 53 -1 53 -3 0
-1 -12 -7 -27 -13 -32 -12 -133 -3 -133 12 0 6 4 8 8 5 4 -2 14 -1 22 4 8 5
17 6 20 2 3 -4 29 -7 57 -7z m94 -25 c6 0 8 -4 5 -8 -3 -5 -19 -7 -37 -4 -22
3 -27 7 -18 13 8 5 20 7 27 4 8 -3 18 -5 23 -5z m-41 -40 c18 -12 2 -12 -25 0
-13 6 -15 9 -5 9 8 0 22 -4 30 -9z m-1110 -10 c-20 -13 -33 -13 -25 0 3 6 14
10 23 10 15 0 15 -2 2 -10z m960 -29 c0 -29 -1 -30 -30 -20 -35 13 -35 13 -14
33 25 26 44 20 44 -13z m45 19 c-3 -5 -10 -10 -16 -10 -5 0 -9 5 -9 10 0 6 7
10 16 10 8 0 12 -4 9 -10z m-140 -328 c-3 -3 -11 0 -18 7 -9 10 -8 11 6 5 10
-3 15 -9 12 -12z m-505 -262 c0 -5 -2 -10 -4 -10 -3 0 -8 5 -11 10 -3 6 -1 10
4 10 6 0 11 -4 11 -10z m-21 -81 c-10 -6 -16 -2 -20 14 l-6 22 -10 -24 c-6
-15 -12 -20 -17 -13 -4 6 1 19 11 29 17 17 19 17 37 -1 15 -15 16 -20 5 -27z
m336 31 c3 -5 2 -10 -4 -10 -5 0 -13 5 -16 10 -3 6 -2 10 4 10 5 0 13 -4 16
-10z m-631 -48 c3 -5 -1 -9 -9 -9 -8 0 -12 4 -9 9 3 4 7 8 9 8 2 0 6 -4 9 -8z
m70 -44 c4 -29 10 -64 13 -78 6 -22 5 -24 -10 -11 -14 11 -17 11 -17 1 0 -8
-3 -11 -6 -8 -3 4 0 16 6 28 10 18 9 21 -7 18 -15 -3 -18 3 -16 37 5 82 27 89
37 13z m916 31 c0 -6 -4 -7 -10 -4 -5 3 -10 11 -10 16 0 6 5 7 10 4 6 -3 10
-11 10 -16z m-970 -36 c-11 -17 -11 -17 -6 0 3 10 6 24 7 30 0 9 2 9 5 0 3 -7
0 -20 -6 -30z m363 -13 c12 -18 15 -18 20 -5 7 18 53 20 63 3 4 -7 3 -8 -4 -4
-8 5 -10 1 -5 -10 5 -15 7 -15 15 0 11 19 41 21 68 4 16 -10 24 -10 40 0 25
15 53 15 68 0 8 -8 15 -8 24 -1 7 6 42 10 78 9 63 -1 65 -2 62 -26 -3 -21 -2
-22 12 -11 8 7 20 10 26 6 6 -4 17 -2 24 4 10 9 15 7 18 -6 7 -25 -1 -43 -18
-43 -8 0 -26 -7 -39 -16 -14 -9 -25 -13 -25 -10 0 4 -9 2 -20 -4 -17 -9 -24
-7 -40 12 -19 23 -19 23 -20 2 0 -37 58 -39 143 -5 17 6 27 7 27 1 0 -19 15
-10 75 45 32 30 60 55 61 55 1 0 0 -10 -4 -22 -3 -14 -2 -19 6 -14 13 8 17
-16 5 -28 -14 -13 -10 -57 4 -52 7 3 10 -1 6 -9 -3 -8 -10 -12 -16 -8 -6 3 -7
1 -3 -5 9 -15 -12 -54 -24 -47 -6 3 -7 -1 -4 -9 3 -9 1 -16 -6 -16 -6 0 -8 -4
-5 -10 3 -5 2 -10 -3 -10 -6 0 -8 -9 -5 -20 6 -24 -12 -27 -21 -4 -4 9 -9 14
-12 11 -3 -3 1 -15 8 -26 11 -19 10 -24 -14 -44 -21 -18 -25 -26 -16 -35 7 -7
8 -12 4 -12 -5 0 -3 -7 4 -15 7 -8 9 -15 5 -15 -4 0 -14 8 -21 17 -7 10 -16
15 -20 11 -4 -4 -1 -14 6 -23 10 -12 10 -18 -1 -32 -11 -13 -11 -17 -1 -20 14
-6 16 -23 2 -23 -6 0 -16 11 -22 25 -6 14 -16 25 -22 25 -6 0 -5 -5 2 -12 7
-7 12 -21 12 -32 0 -13 -3 -16 -8 -10 -4 6 -20 13 -37 16 -16 3 -39 9 -50 13
-18 7 -18 6 3 -12 12 -11 22 -28 22 -38 0 -14 3 -15 14 -6 23 19 17 -41 -7
-61 -11 -10 -15 -18 -9 -18 7 0 12 -5 12 -12 0 -6 -9 -3 -20 7 -19 17 -19 19
-2 31 9 7 13 16 9 21 -12 12 -38 -28 -32 -48 7 -21 -14 -37 -25 -19 -4 7 -13
9 -19 6 -6 -4 -8 -12 -5 -18 4 -7 2 -8 -4 -4 -7 4 -12 1 -12 -9 0 -11 -14 -2
-40 27 -37 39 -39 44 -23 55 18 14 14 17 -11 7 -9 -3 -16 -12 -16 -20 0 -22
-17 -16 -23 7 -3 12 -3 18 0 15 4 -3 14 5 23 20 10 14 20 25 24 25 19 -3 26 0
26 10 0 6 -9 8 -21 4 -18 -6 -21 -4 -17 12 6 21 -17 49 -27 33 -3 -6 0 -10 7
-10 9 -1 7 -5 -4 -14 -19 -14 -25 -32 -8 -21 6 3 10 4 10 1 0 -13 -43 -86 -50
-86 -5 0 -16 -3 -25 -6 -15 -6 -15 -4 -4 15 8 12 22 24 31 27 12 4 16 15 15
44 -1 32 -3 36 -13 22 -8 -11 -9 -19 -2 -23 7 -4 6 -9 -1 -13 -15 -10 -27 22
-13 36 6 6 8 17 5 24 -3 8 1 14 11 14 8 0 24 9 34 20 11 11 30 23 43 25 12 3
27 11 31 20 5 8 14 15 21 15 7 0 -1 -12 -17 -26 -15 -14 -26 -27 -24 -29 9 -9
48 8 48 21 0 8 5 14 10 14 12 0 13 10 1 29 -7 11 -13 10 -35 -4 -26 -17 -26
-17 -26 10 0 21 -4 26 -16 21 -9 -3 -20 -6 -25 -6 -4 0 -5 -7 -2 -17 4 -11 3
-14 -6 -9 -6 4 -10 15 -9 24 2 12 -5 18 -26 20 -21 3 -26 0 -21 -10 6 -10 5
-11 -6 0 -21 19 -35 15 -73 -25 -25 -27 -32 -40 -23 -46 8 -6 6 -7 -5 -3 -11
3 -21 -2 -28 -14 -14 -27 -12 -34 5 -20 8 7 15 8 15 3 0 -12 48 -5 56 8 2 4
13 1 23 -9 16 -15 16 -19 4 -34 -13 -14 -12 -19 6 -37 23 -23 26 -37 11 -46
-6 -4 -7 -11 -4 -17 5 -7 1 -9 -9 -5 -10 3 -17 2 -17 -4 0 -15 -26 -39 -42
-39 -10 1 -9 4 2 13 15 13 40 52 40 63 0 4 -7 1 -15 -6 -12 -10 -15 -10 -15 1
0 11 -2 11 -10 -1 -9 -13 -11 -13 -21 0 -8 12 -9 11 -4 -6 4 -15 0 -24 -11
-28 -15 -6 -15 -4 -3 11 12 15 12 16 -3 10 -10 -3 -20 -2 -23 3 -4 6 1 10 10
10 11 0 15 5 11 15 -3 8 2 19 12 24 9 6 12 11 5 11 -16 0 -53 -40 -53 -57 0
-7 -8 -13 -17 -13 -13 0 -15 2 -5 8 8 5 10 16 6 27 -5 13 -4 16 4 11 7 -4 12
-3 12 3 0 5 -6 12 -12 14 -7 3 -1 6 15 6 15 1 27 5 27 11 0 5 7 7 15 4 8 -4
15 -1 15 5 0 6 6 8 13 5 7 -2 22 6 33 18 13 15 14 19 2 10 -28 -22 -69 -24
-89 -6 -11 9 -19 12 -19 7 0 -6 -7 -14 -16 -17 -11 -4 -15 -2 -11 8 4 10 1 13
-9 9 -7 -3 -14 0 -14 6 0 7 -8 7 -26 1 -32 -12 -34 -12 -34 0 0 6 10 10 23 10
20 1 20 2 6 13 -15 12 -15 14 2 35 17 22 17 24 1 41 -22 22 -42 23 -67 2 -18
-15 -19 -15 -6 2 12 15 11 20 -3 36 -17 18 -16 20 1 30 10 6 12 11 6 11 -7 0
-13 8 -14 18 0 14 -2 14 -9 -3 -8 -19 -9 -19 -9 3 -1 12 -6 22 -11 22 -6 0
-10 16 -8 36 2 26 8 39 23 44 19 8 19 9 -4 9 -19 1 -21 4 -12 15 7 8 11 20 10
28 -5 41 4 40 44 -3 24 -25 49 -43 57 -41 8 3 10 0 5 -8 -6 -10 -4 -12 8 -7 9
3 18 0 21 -9 3 -9 10 -12 16 -9 5 3 10 0 10 -7 0 -8 5 -6 11 5 5 9 15 17 20
17 6 0 7 -4 4 -10 -3 -6 1 -7 9 -4 20 8 20 18 2 33 -11 9 -15 9 -19 -1 -3 -9
-11 -6 -30 10 -29 27 -42 72 -21 72 8 0 14 7 14 15 0 21 16 19 33 -5z m-263
-51 c0 -6 -4 -7 -10 -4 -5 3 -10 11 -10 16 0 6 5 7 10 4 6 -3 10 -11 10 -16z
m944 -24 c-4 -8 -11 -15 -16 -15 -6 0 -5 6 2 15 7 8 14 15 16 15 2 0 1 -7 -2
-15z m-533 -232 c13 -17 13 -17 -6 -3 -11 8 -22 16 -24 17 -2 2 0 3 6 3 6 0
17 -8 24 -17z m-271 -3 c0 -5 -5 -10 -11 -10 -5 0 -7 5 -4 10 3 6 8 10 11 10
2 0 4 -4 4 -10z m720 -10 c0 -5 -5 -10 -11 -10 -5 0 -7 5 -4 10 3 6 8 10 11
10 2 0 4 -4 4 -10z m-440 -34 c0 -2 -8 -10 -17 -17 -16 -13 -17 -12 -4 4 13
16 21 21 21 13z m51 -19 c-10 -9 -11 -8 -5 6 3 10 9 15 12 12 3 -3 0 -11 -7
-18z m-281 -47 c0 -5 -9 -14 -21 -20 -19 -11 -20 -10 -9 9 11 22 30 29 30 11z
m240 -14 c0 -2 -7 -9 -15 -16 -12 -10 -15 -10 -15 4 0 9 7 16 15 16 8 0 15 -2
15 -4z m33 -137 c-4 -15 -9 -17 -17 -9 -8 8 -7 13 4 20 8 5 16 10 17 10 0 0
-1 -9 -4 -21z m67 -13 c0 -2 -7 -7 -16 -10 -8 -3 -12 -2 -9 4 6 10 25 14 25 6z
m-215 -16 c-3 -5 -11 -10 -16 -10 -6 0 -7 5 -4 10 3 6 11 10 16 10 6 0 7 -4 4
-10z m-212 -77 c-6 -16 -5 -17 13 -3 18 14 18 14 5 -3 -12 -15 -12 -20 -2 -27
11 -6 11 -8 0 -12 -8 -3 -10 -9 -6 -14 5 -5 15 -1 23 10 8 11 14 15 14 10 0
-6 -11 -20 -25 -32 l-25 -21 4 30 c3 22 0 29 -10 25 -15 -6 -20 34 -7 47 13
13 22 7 16 -10z m178 -130 c13 -16 12 -17 -3 -4 -10 7 -18 15 -18 17 0 8 8 3
21 -13z m-57 -13 c19 -7 26 -6 26 2 0 6 7 5 18 -5 9 -8 30 -19 46 -23 16 -4
31 -15 33 -24 3 -9 20 -24 39 -34 44 -20 50 -20 33 2 -7 9 -1 6 14 -7 27 -25
39 -54 13 -32 -8 6 -18 11 -22 10 -12 -3 -45 11 -64 26 -8 7 -24 15 -35 19
-17 6 -17 4 4 -18 14 -15 35 -26 48 -26 14 0 21 -4 18 -10 -3 -5 -4 -10 -1
-10 2 0 12 -3 22 -7 12 -4 15 -3 10 5 -11 18 0 14 15 -4 13 -15 11 -17 -17
-12 -20 3 -30 0 -28 -6 2 -6 25 -11 50 -12 25 -1 50 -6 56 -12 15 -15 28 -15
28 -2 0 6 -3 9 -7 8 -5 -2 -19 5 -33 15 -17 11 -19 17 -9 17 9 0 19 -3 22 -6
7 -7 57 -15 92 -15 16 0 17 -2 5 -9 -8 -5 -24 -10 -35 -10 -19 -1 -19 -1 -2
-11 10 -6 25 -8 33 -5 12 4 12 2 4 -14 -6 -11 -7 -20 -2 -20 8 0 11 -40 2 -41
-85 -8 -105 -4 -135 24 -29 27 -29 28 -6 23 17 -3 21 -2 13 6 -6 6 -25 11 -43
11 -29 0 -30 1 -9 12 21 11 20 12 -11 13 -19 0 -35 6 -37 11 -2 6 -8 11 -13
11 -6 0 -8 -4 -4 -9 3 -5 1 -12 -4 -15 -5 -4 -13 -1 -18 6 -13 22 -12 38 3 38
8 0 14 5 14 10 0 6 -7 10 -16 10 -8 0 -13 4 -10 8 2 4 -4 14 -15 20 -18 11
-19 10 -13 -13 4 -15 2 -25 -5 -25 -11 0 -15 13 -12 37 1 6 -7 14 -18 18 -11
3 -18 12 -15 19 6 15 -37 46 -63 46 -15 0 -16 2 -3 10 18 12 14 12 44 0z m-79
-30 c3 -5 2 -10 -4 -10 -5 0 -13 5 -16 10 -3 6 -2 10 4 10 5 0 13 -4 16 -10z
m75 -15 c7 -8 8 -15 2 -15 -5 0 -15 7 -22 15 -7 8 -8 15 -2 15 5 0 15 -7 22
-15z m34 -43 c2 -4 -5 -9 -17 -9 -17 -2 -19 0 -7 7 18 12 18 12 24 2z m221 -2
c3 -5 2 -10 -4 -10 -5 0 -13 5 -16 10 -3 6 -2 10 4 10 5 0 13 -4 16 -10z m45
-20 c11 -7 11 -10 2 -10 -7 0 -10 -5 -6 -12 4 -7 3 -8 -5 -4 -6 4 -8 12 -5 18
5 8 1 9 -10 5 -10 -4 -15 -3 -11 3 8 12 16 12 35 0z m497 -26 c-3 -3 -12 -4
-19 -1 -8 3 -5 6 6 6 11 1 17 -2 13 -5z m33 2 c0 -3 -4 -8 -10 -11 -5 -3 -10
-1 -10 4 0 6 5 11 10 11 6 0 10 -2 10 -4z m-225 -26 c3 -5 1 -10 -4 -10 -6 0
-11 5 -11 10 0 6 2 10 4 10 3 0 8 -4 11 -10z m99 1 c3 -5 -3 -11 -13 -14 -14
-3 -18 -1 -14 9 6 16 19 18 27 5z m-124 -11 c0 -5 -4 -10 -10 -10 -5 0 -10 5
-10 10 0 6 5 10 10 10 6 0 10 -4 10 -10z m44 -26 c9 -3 13 -10 10 -15 -3 -5
-10 -7 -15 -4 -5 3 -6 0 -3 -8 3 -8 -6 -27 -20 -42 -14 -15 -26 -23 -26 -16 0
6 -7 11 -16 11 -14 0 -15 -2 -3 -17 12 -14 12 -16 0 -12 -7 3 -29 -10 -47 -28
-19 -18 -40 -33 -47 -33 -7 0 -29 -11 -50 -26 -21 -14 -56 -32 -79 -40 -37
-13 -43 -13 -51 1 -4 8 -13 12 -19 9 -7 -4 -8 -2 -4 4 3 6 28 14 54 18 26 3
54 11 62 16 13 8 12 9 -2 4 -9 -2 -21 1 -27 8 -9 10 -3 12 30 9 59 -6 139 24
110 41 -4 3 -18 -3 -31 -14 -12 -10 -28 -16 -35 -14 -19 7 -15 44 5 44 9 0 11
3 4 8 -16 10 -14 41 2 35 8 -3 31 9 53 26 24 19 42 27 46 21 3 -5 -2 -10 -12
-11 -12 -1 -10 -3 7 -8 14 -4 37 -5 53 -3 21 3 25 7 17 17 -8 9 -7 14 2 18 7
3 14 6 15 6 1 1 8 -2 17 -5z m80 -9 c-7 -18 -14 -18 -34 -4 -13 9 -12 10 2 5
10 -3 20 -1 23 4 9 15 15 12 9 -5z m-547 -1 c-3 -3 -12 -4 -19 -1 -8 3 -5 6 6
6 11 1 17 -2 13 -5z m508 -24 c-3 -5 -13 -10 -21 -10 -8 0 -12 5 -9 10 3 6 13
10 21 10 8 0 12 -4 9 -10z m-511 -9 c3 -4 -6 -6 -19 -3 -14 2 -25 6 -25 8 0 8
39 4 44 -5z m21 -41 c3 -5 2 -10 -4 -10 -5 0 -13 5 -16 10 -3 6 -2 10 4 10 5
0 13 -4 16 -10z m62 -36 c-9 -9 -28 6 -21 18 4 6 10 6 17 -1 6 -6 8 -13 4 -17z"/>
<path d="M5500 8224 c0 -8 5 -12 10 -9 6 3 10 10 10 16 0 5 -4 9 -10 9 -5 0
-10 -7 -10 -16z"/>
<path d="M5314 7962 c-17 -15 -39 -40 -49 -57 -14 -22 -6 -18 27 18 48 51 54
53 92 35 20 -8 31 -8 48 1 13 7 15 9 5 6 -10 -3 -31 2 -47 10 -38 20 -40 19
-76 -13z"/>
<path d="M6103 7952 c11 -10 20 -11 32 -4 15 8 13 10 -14 14 -28 4 -30 3 -18
-10z"/>
<path d="M6205 7943 c-16 -2 -34 -8 -39 -13 -11 -11 234 -11 259 0 16 7 12 9
-20 9 -22 1 -69 3 -105 5 -36 2 -78 2 -95 -1z"/>
<path d="M5747 7252 c-10 -2 -16 -9 -14 -15 2 -7 -3 -17 -12 -24 -20 -15 -11
-24 16 -17 15 4 20 11 16 22 -5 12 -2 14 13 8 10 -5 42 -10 69 -13 38 -3 46
-2 33 6 -9 6 -25 10 -35 9 -38 -3 -62 2 -65 15 -2 7 -11 11 -21 9z"/>
<path d="M5950 7230 c0 -6 -15 -11 -32 -11 -27 -2 -29 -3 -8 -6 14 -2 36 0 49
5 20 7 21 10 8 15 -10 4 -17 2 -17 -3z"/>
<path d="M6000 7220 c0 -5 5 -10 10 -10 6 0 10 5 10 10 0 6 -4 10 -10 10 -5 0
-10 -4 -10 -10z"/>
<path d="M5540 7100 c-8 -5 -12 -12 -9 -15 4 -3 12 1 19 10 14 17 11 19 -10 5z"/>
<path d="M5724 7036 c-9 -20 -8 -22 13 -18 26 5 29 14 10 30 -9 8 -15 5 -23
-12z"/>
<path d="M5655 7030 c3 -5 8 -10 11 -10 2 0 4 5 4 10 0 6 -5 10 -11 10 -5 0
-7 -4 -4 -10z"/>
<path d="M6035 6990 c-4 -7 -2 -16 6 -21 18 -11 23 -4 11 17 -7 12 -11 13 -17
4z"/>
<path d="M6166 6955 c4 -8 10 -12 15 -9 14 8 10 24 -6 24 -9 0 -12 -6 -9 -15z"/>
<path d="M5915 6950 c3 -5 11 -10 16 -10 6 0 7 5 4 10 -3 6 -11 10 -16 10 -6
0 -7 -4 -4 -10z"/>
<path d="M6108 6923 c7 -3 16 -2 19 1 4 3 -2 6 -13 5 -11 0 -14 -3 -6 -6z"/>
<path d="M5750 6880 c0 -5 5 -10 10 -10 6 0 10 5 10 10 0 6 -4 10 -10 10 -5 0
-10 -4 -10 -10z"/>
<path d="M6066 6865 c-2 -7 2 -16 10 -19 8 -3 13 -2 9 3 -3 5 0 11 7 13 8 3 6
7 -4 11 -9 3 -19 0 -22 -8z"/>
<path d="M5780 6859 c0 -5 5 -7 10 -4 6 3 10 8 10 11 0 2 -4 4 -10 4 -5 0 -10
-5 -10 -11z"/>
<path d="M6036 6843 c-4 -4 -18 -7 -33 -8 -22 0 -26 -5 -30 -36 -3 -37 18 -71
32 -49 3 5 1 10 -4 10 -19 0 -12 18 10 23 12 3 18 10 14 17 -4 6 1 20 11 31
16 17 16 28 0 12z"/>
<path d="M6130 6220 c0 -5 7 -10 16 -10 8 0 12 5 9 10 -3 6 -10 10 -16 10 -5
0 -9 -4 -9 -10z"/>
<path d="M6756 8575 c4 -8 10 -15 15 -15 4 0 6 7 3 15 -4 8 -10 15 -15 15 -4
0 -6 -7 -3 -15z"/>
<path d="M7169 8225 c-37 -62 -70 -69 -120 -27 -28 23 -32 24 -25 7 4 -11 10
-34 13 -52 4 -23 14 -36 38 -47 17 -9 43 -33 57 -53 14 -21 51 -65 82 -98 35
-37 56 -69 56 -83 0 -22 3 -21 38 15 20 21 33 40 29 41 -4 2 -14 -1 -22 -8
-17 -14 -27 3 -45 77 -15 65 -7 90 33 107 l32 14 -32 1 c-17 1 -38 8 -46 16
-8 8 -17 11 -21 8 -3 -3 -15 2 -27 13 -17 15 -20 26 -14 61 3 24 4 43 0 43 -3
0 -15 -16 -26 -35z"/>
<path d="M6825 8136 c-22 -27 -42 -43 -49 -39 -6 4 -5 -1 2 -10 13 -15 18 -11
54 34 50 63 44 76 -7 15z"/>
<path d="M6989 8052 c-13 -22 -27 -31 -65 -38 -27 -6 -64 -7 -81 -3 -18 3 -33
3 -33 -2 0 -13 68 -28 104 -22 29 4 38 0 73 -35 27 -27 42 -54 50 -87 10 -44
9 -48 -16 -72 -24 -24 -25 -24 -3 -13 18 9 35 9 73 0 46 -11 55 -20 49 -45 -1
-5 -3 -14 -4 -20 -1 -5 -5 -16 -10 -24 -7 -10 -3 -12 15 -6 21 7 22 6 11 -8
-8 -9 -9 -18 -3 -21 5 -3 8 -17 6 -31 -1 -14 2 -25 7 -25 5 0 7 -4 3 -9 -3 -5
0 -13 6 -16 6 -4 8 -18 4 -32 -4 -17 -2 -23 6 -18 8 5 9 0 4 -16 l-6 -24 20
25 c13 16 22 47 26 90 4 36 13 87 21 114 8 27 14 53 14 58 0 4 -34 8 -75 8
-73 0 -75 1 -81 28 -24 103 -48 181 -69 223 -14 27 -26 49 -28 49 -1 0 -9 -13
-18 -28z"/>
<path d="M5112 7850 c0 -19 2 -27 5 -17 2 9 2 25 0 35 -3 9 -5 1 -5 -18z"/>
<path d="M5530 7669 c-24 -32 -48 -59 -54 -59 -6 0 -5 -4 3 -9 20 -13 89 36
97 69 4 14 11 30 16 36 5 7 3 14 -5 17 -9 3 -30 -17 -57 -54z"/>
<path d="M6200 7640 c18 -22 41 -45 53 -51 12 -7 2 10 -24 40 -52 60 -75 69
-29 11z"/>
<path d="M5965 7574 c-16 -8 -37 -22 -45 -30 -13 -14 -10 -14 24 0 50 21 83
22 67 2 -9 -10 -9 -16 -1 -21 6 -4 9 -14 6 -22 -3 -8 -1 -11 4 -8 9 6 15 -9
11 -29 -1 -5 6 -3 15 5 16 13 17 12 12 -8 -5 -17 0 -23 20 -28 14 -3 29 -1 36
6 8 9 6 10 -8 5 -19 -7 -19 -6 -1 14 14 16 16 23 7 32 -9 9 -12 9 -12 0 0 -7
-4 -12 -10 -12 -5 0 -10 9 -10 20 0 14 -7 20 -21 20 -11 0 -17 -4 -14 -10 3
-5 2 -10 -2 -10 -5 0 -13 8 -20 18 -9 15 -6 21 18 38 16 10 29 22 29 27 0 13
-74 7 -105 -9z"/>
<path d="M5329 7503 c-13 -16 -12 -17 4 -4 9 7 17 15 17 17 0 8 -8 3 -21 -13z"/>
<path d="M7150 7499 c0 -5 5 -7 10 -4 6 3 10 8 10 11 0 2 -4 4 -10 4 -5 0 -10
-5 -10 -11z"/>
<path d="M6156 7474 c-4 -9 -4 -19 -1 -22 2 -3 7 3 11 12 4 9 4 19 1 22 -2 3
-7 -3 -11 -12z"/>
<path d="M6190 7460 c0 -5 5 -10 10 -10 6 0 10 5 10 10 0 6 -4 10 -10 10 -5 0
-10 -4 -10 -10z"/>
<path d="M6891 7444 c0 -11 3 -14 6 -6 3 7 2 16 -1 19 -3 4 -6 -2 -5 -13z"/>
<path d="M7161 7353 c-13 -47 -14 -70 -2 -57 10 10 26 94 17 94 -3 0 -10 -17
-15 -37z"/>
<path d="M6901 7344 c0 -11 3 -14 6 -6 3 7 2 16 -1 19 -3 4 -6 -2 -5 -13z"/>
<path d="M6445 7321 c-3 -5 -1 -12 5 -16 5 -3 10 1 10 9 0 18 -6 21 -15 7z"/>
<path d="M6931 7222 c-1 -14 27 -72 35 -72 2 0 -2 12 -9 28 -8 15 -17 34 -20
42 -4 10 -6 11 -6 2z"/>
<path d="M7170 7153 c0 -5 5 -15 10 -23 8 -12 10 -11 10 8 0 12 -4 22 -10 22
-5 0 -10 -3 -10 -7z"/>
<path d="M6978 7125 c5 -11 36 -47 67 -80 l56 -60 -62 75 c-74 90 -74 90 -61
65z"/>
<path d="M6770 7040 c-11 -7 -12 -12 -4 -20 8 -8 13 -6 17 9 3 12 4 21 4 21
-1 0 -9 -5 -17 -10z"/>
<path d="M7150 6947 c0 -2 15 -16 33 -33 l32 -29 -29 33 c-28 30 -36 37 -36
29z"/>
<path d="M5360 6838 c0 -12 3 -17 8 -12 4 5 11 12 15 15 5 3 2 9 -7 12 -12 5
-16 0 -16 -15z"/>
<path d="M5380 6805 c0 -8 2 -15 4 -15 2 0 6 7 10 15 3 8 1 15 -4 15 -6 0 -10
-7 -10 -15z"/>
<path d="M6650 6798 c0 -6 -7 -20 -17 -30 -9 -10 -11 -18 -5 -18 6 0 14 5 18
11 5 8 8 8 13 0 5 -8 14 -5 26 9 16 18 17 23 5 30 -21 13 -40 12 -40 -2z m30
-13 c0 -8 -4 -15 -10 -15 -5 0 -7 7 -4 15 4 8 8 15 10 15 2 0 4 -7 4 -15z"/>
<path d="M7290 6806 c0 -2 8 -10 18 -17 15 -13 16 -12 3 4 -13 16 -21 21 -21
13z"/>
<path d="M6620 6789 c0 -5 5 -7 10 -4 6 3 10 8 10 11 0 2 -4 4 -10 4 -5 0 -10
-5 -10 -11z"/>
<path d="M5430 6752 c0 -4 9 -15 20 -25 23 -20 26 -47 6 -47 -21 0 -26 -13
-10 -27 11 -11 16 -7 28 20 17 39 17 67 -1 60 -7 -3 -13 2 -13 11 0 9 -7 16
-15 16 -8 0 -15 -3 -15 -8z"/>
<path d="M5410 6731 c0 -5 7 -12 16 -15 14 -5 15 -4 4 9 -14 17 -20 19 -20 6z"/>
<path d="M6650 6719 c0 -5 5 -7 10 -4 6 3 10 8 10 11 0 2 -4 4 -10 4 -5 0 -10
-5 -10 -11z"/>
<path d="M6610 6700 c0 -5 5 -10 10 -10 6 0 10 5 10 10 0 6 -4 10 -10 10 -5 0
-10 -4 -10 -10z"/>
<path d="M5415 6690 c3 -5 8 -10 11 -10 2 0 4 5 4 10 0 6 -5 10 -11 10 -5 0
-7 -4 -4 -10z"/>
<path d="M5411 6655 c-1 -5 8 -20 17 -33 16 -21 20 -22 31 -8 12 14 10 16 -7
16 -12 0 -26 8 -31 18 -6 9 -10 13 -10 7z"/>
<path d="M7612 6630 c0 -14 2 -19 5 -12 2 6 2 18 0 25 -3 6 -5 1 -5 -13z"/>
<path d="M7640 6560 c-9 -6 -10 -10 -3 -10 6 0 15 5 18 10 8 12 4 12 -15 0z"/>
<path d="M5690 6245 c0 -10 29 -24 34 -17 3 6 -3 12 -14 15 -11 3 -20 4 -20 2z"/>
<path d="M8655 6120 c-19 -7 -19 -8 5 -18 16 -6 26 -6 29 0 6 16 -13 26 -34
18z"/>
<path d="M5950 6054 c-36 -14 -73 -30 -82 -35 -28 -14 -33 -11 -14 10 16 17
16 19 0 25 -13 5 -33 -8 -71 -46 -81 -80 -100 -113 -154 -275 l-50 -149 27
-42 c15 -23 33 -42 40 -42 7 0 30 23 52 50 l40 50 15 -47 c21 -67 19 -103 -9
-158 -17 -34 -24 -65 -24 -105 0 -52 -27 -150 -113 -410 -45 -136 -79 -263
-123 -465 -14 -66 -32 -147 -39 -180 -77 -337 -144 -702 -164 -885 -42 -396
-46 -498 -26 -735 10 -110 25 -251 34 -313 10 -62 14 -115 9 -118 -12 -8 -10
-64 3 -64 5 0 7 -4 4 -10 -4 -7 59 -10 182 -10 103 -1 233 -3 288 -6 74 -4 96
-2 85 6 -11 8 4 10 60 8 l75 -3 6 570 c4 314 9 597 13 630 3 33 10 125 16 205
12 163 34 406 56 615 8 77 19 196 25 265 18 226 26 295 33 315 6 14 5 16 -2 7
-6 -9 -11 5 -15 45 -24 223 -41 335 -72 467 -56 246 -55 233 -23 298 28 58 56
89 46 50 -4 -14 -2 -19 8 -15 7 3 25 -4 40 -16 14 -11 31 -18 36 -15 5 3 15 0
23 -6 11 -9 19 -8 39 7 19 14 23 24 19 48 -11 63 -87 284 -124 363 -37 76 -42
82 -64 76 -15 -4 -25 -2 -25 5 0 6 7 11 15 11 18 0 20 21 3 38 -16 16 -22 15
-98 -14z m57 -39 c2 -6 -7 -11 -19 -12 -13 0 -17 1 -9 4 11 5 11 7 0 15 -11 7
-9 8 5 6 11 -2 21 -8 23 -13z m-52 -5 c3 -5 0 -10 -7 -10 -7 0 -31 -3 -53 -6
l-40 -5 30 15 c36 17 62 20 70 6z m-128 -3896 c-3 -3 -12 -4 -19 -1 -8 3 -5 6
6 6 11 1 17 -2 13 -5z"/>
<path d="M6434 5679 l-29 -31 32 19 c18 10 35 24 38 31 8 21 -10 13 -41 -19z"/>
<path d="M8090 5138 l-23 -33 31 29 c34 31 37 36 24 36 -5 0 -19 -15 -32 -32z"/>
<path d="M7986 5017 c-54 -91 -76 -160 -136 -427 -12 -52 -26 -108 -31 -125
-10 -36 -52 -235 -74 -358 -19 -103 -28 -333 -14 -359 7 -13 6 -18 -3 -18 -10
0 -10 -2 -1 -8 7 -4 14 -19 16 -32 4 -26 23 -30 21 -4 -1 8 2 14 7 14 5 0 9
-7 9 -16 0 -14 2 -15 17 -3 14 12 16 12 8 0 -6 -11 -4 -13 9 -8 9 4 15 3 12
-2 -3 -4 0 -25 6 -47 7 -21 12 -43 12 -48 1 -5 6 -11 13 -13 7 -3 11 9 10 31
0 19 -5 32 -11 29 -5 -3 -6 -1 -2 5 3 6 2 13 -3 16 -11 7 -2 46 10 46 5 0 6
12 3 28 -4 15 -3 23 2 19 5 -4 12 -56 15 -115 6 -82 19 -224 29 -310 0 -2 5 0
10 3 6 3 10 1 10 -4 0 -6 5 -11 11 -11 5 0 9 8 8 18 -1 9 0 33 1 52 l2 35 10
-28 c10 -27 11 -27 29 -11 18 16 19 16 19 0 0 -10 5 -14 11 -11 21 14 47 -27
59 -92 14 -74 8 -178 -15 -243 -21 -60 -19 -71 7 -30 54 88 78 261 58 415 -5
33 -11 83 -15 110 -3 28 -8 58 -11 68 -3 10 0 25 7 33 10 12 9 13 -6 8 -14 -6
-16 -4 -10 7 15 22 13 49 -3 49 -12 0 -12 3 -1 16 8 10 13 48 13 117 0 56 1
92 3 80 3 -13 8 -23 12 -23 5 0 7 10 5 23 -2 12 -6 45 -9 72 -5 52 -2 52 10 0
l7 -30 17 22 c14 16 21 19 30 10 6 -6 11 -8 11 -5 0 4 -8 14 -17 24 -16 16
-16 16 7 9 22 -7 23 -6 11 8 -11 14 -11 18 1 22 7 3 15 17 16 31 2 24 0 25
-15 13 -15 -13 -15 -12 -3 10 11 21 10 26 -6 38 -10 7 -20 13 -24 13 -3 0 -13
12 -22 28 -10 15 -18 21 -18 15 0 -19 -17 -16 -17 3 0 13 8 15 38 10 20 -3 44
-9 53 -12 9 -3 16 -1 16 5 0 6 -7 11 -16 11 -17 0 -114 40 -114 47 0 2 5 13
10 23 8 16 7 18 -4 14 -20 -8 -89 97 -115 172 -17 52 -20 55 -23 29 -4 -36 14
-106 47 -177 24 -52 36 -102 16 -68 -5 8 -28 61 -51 118 -31 77 -43 125 -51
195 -5 51 -12 111 -15 134 -4 27 0 58 9 85 9 24 18 60 22 80 3 21 26 77 50
125 47 94 53 123 11 50z m20 -842 c12 -8 24 -11 28 -8 3 3 6 -3 6 -15 0 -33
-30 -25 -43 11 -4 10 -11 15 -17 12 -5 -3 -10 -1 -10 4 0 15 12 14 36 -4z m49
-75 c3 -5 1 -10 -4 -10 -6 0 -11 5 -11 10 0 6 2 10 4 10 3 0 8 -4 11 -10z
m-188 -313 c-2 -23 -3 -1 -3 48 0 50 1 68 3 42 2 -26 2 -67 0 -90z"/>
<path d="M8279 4691 c-88 -112 -157 -311 -108 -311 5 0 9 17 9 38 0 78 42 183
105 266 20 27 35 49 33 51 -2 1 -19 -18 -39 -44z"/>
<path d="M3800 4316 c0 -14 125 -237 128 -228 1 5 -7 29 -18 53 -23 49 -110
188 -110 175z"/>
<path d="M8070 4300 c0 -19 3 -21 12 -12 9 9 9 15 0 24 -9 9 -12 7 -12 -12z"/>
<path d="M8177 4293 c-13 -13 -7 -21 13 -16 11 3 17 9 14 14 -6 11 -18 12 -27
2z"/>
<path d="M8100 4236 c0 -2 7 -7 16 -10 8 -3 12 -2 9 4 -6 10 -25 14 -25 6z"/>
<path d="M8250 4149 c-35 -18 -32 -21 28 -23 27 -1 32 2 30 18 -4 26 -16 27
-58 5z"/>
<path d="M8200 3969 c0 -5 5 -7 10 -4 6 3 10 8 10 11 0 2 -4 4 -10 4 -5 0 -10
-5 -10 -11z"/>
<path d="M8850 3855 c13 -14 26 -23 28 -20 7 7 -29 45 -41 45 -6 0 0 -11 13
-25z"/>
<path d="M8120 3836 c0 -9 5 -16 10 -16 6 0 10 4 10 9 0 6 -4 13 -10 16 -5 3
-10 -1 -10 -9z"/>
<path d="M8112 3740 c0 -14 2 -19 5 -12 2 6 2 18 0 25 -3 6 -5 1 -5 -13z"/>
<path d="M7785 3650 c-3 -5 -2 -10 4 -10 5 0 13 5 16 10 3 6 2 10 -4 10 -5 0
-13 -4 -16 -10z"/>
<path d="M7805 3630 c-3 -5 -1 -10 4 -10 6 0 11 5 11 10 0 6 -2 10 -4 10 -3 0
-8 -4 -11 -10z"/>
<path d="M7820 3601 c0 -6 4 -13 10 -16 6 -3 7 1 4 9 -7 18 -14 21 -14 7z"/>
<path d="M7910 3268 c0 -36 4 -35 14 5 4 16 2 27 -4 27 -5 0 -10 -14 -10 -32z"/>
<path d="M7921 3214 c0 -11 3 -14 6 -6 3 7 2 16 -1 19 -3 4 -6 -2 -5 -13z"/>
<path d="M4283 3193 c25 -28 22 -61 -5 -66 l-23 -4 23 -8 c25 -8 30 -35 7 -35
-8 0 -15 -7 -15 -15 0 -8 -4 -15 -9 -15 -15 0 -60 -114 -57 -143 2 -19 -3 -31
-15 -38 -11 -5 -19 -15 -18 -22 0 -9 2 -9 6 1 2 6 9 12 15 12 6 0 5 -7 -3 -16
-7 -8 -22 -14 -34 -12 -17 4 -21 0 -20 -21 0 -17 -5 -25 -13 -23 -8 1 -11 -2
-8 -7 4 -5 0 -12 -6 -15 -7 -3 -2 -4 12 -1 14 2 39 1 55 -3 28 -8 28 -8 9 -26
-10 -9 -30 -26 -44 -37 l-25 -20 25 2 c76 4 99 -9 82 -46 -7 -14 -18 -25 -24
-24 -13 2 -25 -2 -78 -23 -58 -23 -75 -35 -87 -58 -11 -22 -10 -27 10 -42 17
-13 19 -20 11 -28 -16 -16 -57 -2 -50 16 4 11 2 12 -13 4 -14 -7 -21 -6 -24 3
-3 6 -6 7 -6 1 -1 -5 13 -23 29 -39 17 -16 30 -33 30 -39 0 -6 -5 -5 -12 2
-27 27 -30 10 -3 -18 45 -47 25 -58 -75 -39 -45 9 -83 13 -85 9 -2 -4 26 -12
63 -18 37 -6 87 -16 112 -21 25 -6 78 -10 118 -11 45 0 72 -4 72 -11 0 -7 -29
-9 -90 -7 -49 3 -95 1 -102 -4 -8 -4 15 -8 52 -9 93 -2 114 -4 125 -11 13 -7
87 -22 99 -19 5 1 6 -5 3 -14 -5 -12 4 -15 53 -15 50 0 60 3 65 20 3 11 3 24
0 30 -3 5 -3 10 2 10 4 0 9 36 11 79 1 43 8 99 16 124 13 43 12 52 -14 139
-44 148 -58 248 -69 495 -1 16 -49 71 -75 85 -20 11 -20 10 -3 -9z m-13 -527
c0 -7 -7 -19 -15 -26 -16 -13 -20 -3 -9 24 8 20 24 21 24 2z m-6 -233 c4 -11
1 -13 -14 -8 -13 4 -20 2 -20 -7 0 -10 -2 -10 -8 -1 -6 9 -17 10 -39 4 -27 -8
-30 -7 -26 10 3 10 8 17 12 15 3 -2 15 0 25 4 27 9 64 1 70 -17z m-127 0 c-9
-9 -19 -14 -23 -11 -10 10 6 28 24 28 15 0 15 -1 -1 -17z"/>
<path d="M2287 2838 c-2 -7 2 -20 10 -29 16 -19 7 -50 -13 -42 -8 3 -14 0 -14
-6 0 -6 -6 -11 -13 -11 -8 0 -12 -15 -11 -49 2 -53 10 -75 25 -66 5 4 9 1 9
-5 0 -6 -12 -15 -26 -21 -29 -10 -73 9 -75 34 -1 6 -2 17 -4 22 -1 6 -3 21 -3
34 -3 39 -14 16 -18 -36 -4 -56 34 -233 50 -230 6 1 9 -5 7 -13 -2 -8 -4 -28
-5 -45 0 -16 -5 -36 -9 -42 -5 -8 -3 -13 4 -13 8 0 8 -4 1 -13 -7 -8 -7 -18
-2 -27 6 -8 10 -26 9 -40 0 -23 -1 -22 -14 9 -8 18 -15 41 -15 51 0 10 -16 32
-35 49 -47 41 -106 44 -123 6 -7 -14 -12 -33 -12 -42 0 -9 -6 -13 -15 -9 -18
6 -19 1 -5 -25 8 -14 7 -24 -2 -38 -13 -18 -18 -21 -38 -21 -5 0 -10 -11 -10
-24 0 -25 -22 -51 -33 -39 -4 3 -7 -2 -7 -12 0 -17 -3 -16 -27 6 -21 18 -20
15 5 -12 17 -19 32 -41 32 -48 0 -7 5 -9 10 -6 6 3 10 3 10 -2 0 -4 14 -23 31
-40 34 -37 19 -45 -19 -10 l-24 22 16 -39 c20 -49 40 -63 96 -71 78 -11 189
-44 248 -74 49 -25 59 -35 73 -72 17 -49 64 -82 128 -93 20 -3 65 -17 100 -31
35 -14 67 -25 72 -23 11 4 -30 68 -44 68 -5 0 -3 -8 5 -17 8 -10 18 -25 22
-33 4 -8 -4 -1 -18 15 -14 17 -26 33 -26 37 0 4 -16 22 -35 41 -19 19 -35 39
-35 46 0 6 -6 11 -12 11 -8 0 -9 3 -3 8 6 4 10 27 10 52 0 35 -14 72 -63 170
l-62 125 -10 150 c-5 83 -12 161 -15 175 l-6 25 11 -25 c6 -13 18 -33 27 -42
9 -10 13 -18 8 -18 -4 0 -2 -7 5 -15 7 -8 16 -13 20 -10 5 3 11 1 15 -5 3 -5
1 -10 -6 -10 -13 0 -3 -14 12 -16 5 -1 11 -2 14 -3 3 0 1 -10 -5 -20 -7 -14
-6 -21 3 -24 9 -4 9 -6 0 -6 -7 -1 -13 -8 -13 -16 0 -8 6 -15 13 -15 6 -1 1
-8 -13 -16 l-25 -15 30 5 c28 4 28 3 10 -10 -10 -8 -22 -14 -26 -14 -11 0 -4
-33 8 -37 6 -2 14 0 17 6 4 6 13 8 21 5 22 -9 8 -24 -22 -24 -17 0 -23 -4 -20
-14 4 -10 0 -12 -14 -9 -13 4 -19 0 -19 -11 0 -10 6 -13 18 -10 10 4 13 2 7
-3 -14 -11 -12 -19 16 -80 15 -33 29 -51 37 -48 7 3 10 0 7 -5 -10 -16 5 -50
21 -50 8 0 13 -4 9 -9 -8 -13 15 -61 44 -93 23 -26 23 -28 5 -29 -17 0 -17 -1
4 -11 28 -14 68 -77 64 -100 -2 -10 2 -18 8 -18 6 0 9 -4 6 -9 -3 -4 0 -20 7
-35 14 -31 64 -50 110 -41 24 5 28 4 17 -4 -13 -9 -12 -11 5 -12 11 -1 31 -1
45 0 18 1 21 -1 11 -7 -9 -7 1 -12 34 -16 53 -8 73 -1 26 9 -30 6 -113 44 -99
45 15 0 115 -21 168 -37 30 -9 61 -18 69 -20 11 -3 10 -6 -4 -17 -17 -12 -16
-14 14 -24 18 -6 29 -7 26 -2 -8 13 11 12 70 -4 36 -10 43 -15 25 -16 -25 -2
-30 -2 -63 7 -13 4 -16 1 -11 -11 3 -9 13 -16 22 -16 8 0 12 -3 9 -7 -4 -3
-22 2 -42 12 -44 24 -56 13 -23 -23 14 -15 49 -67 78 -115 51 -86 71 -105 154
-147 20 -11 61 -15 135 -15 101 0 109 2 182 36 48 23 95 55 125 86 27 27 64
55 83 61 19 7 48 23 66 36 33 25 63 36 64 24 1 -5 -2 -8 -5 -7 -12 1 -24 -26
-19 -42 3 -9 -4 -21 -20 -29 -14 -7 -23 -15 -21 -18 3 -2 26 8 53 23 45 25 47
26 22 3 -14 -12 -37 -32 -52 -43 l-27 -20 22 -17 c30 -23 63 -22 115 1 23 11
44 17 47 14 3 -3 12 0 21 7 8 7 23 9 32 6 10 -4 14 -4 10 0 -4 4 -2 13 4 21
13 15 33 18 24 3 -3 -5 1 -10 9 -10 19 0 21 -21 4 -38 -19 -19 3 -14 25 6 18
16 19 16 17 -3 -2 -11 0 -28 4 -37 5 -10 6 -35 3 -57 -4 -34 -1 -43 19 -56 24
-15 24 -15 26 17 1 25 3 20 7 -16 5 -45 9 -51 40 -63 l34 -14 -6 83 c-3 46 -9
99 -13 118 -11 57 12 23 29 -43 20 -76 42 -110 67 -102 14 5 18 2 14 -8 -5
-13 1 -14 48 -8 3 1 4 14 2 29 -4 24 0 30 32 45 26 13 40 15 49 7 9 -8 14 -8
17 1 3 9 9 9 25 0 17 -9 25 -8 37 4 13 13 15 13 18 -1 2 -13 7 -12 26 6 12 11
22 17 22 13 0 -4 5 0 11 10 8 13 7 24 -5 42 -18 28 -21 55 -6 55 6 0 13 -7 16
-15 4 -8 11 -15 16 -15 6 0 8 6 5 14 -4 10 0 12 14 9 10 -3 16 -10 13 -15 -3
-5 4 -4 16 4 19 11 23 11 36 -7 8 -11 22 -19 31 -17 8 2 12 -1 9 -6 -6 -10 29
-52 44 -52 5 0 18 -20 28 -44 23 -52 38 -63 50 -39 15 27 -17 118 -102 288
-41 83 -73 151 -71 153 1 1 17 -22 36 -53 30 -49 57 -74 47 -43 -3 7 0 18 6
24 8 9 18 6 40 -14 16 -15 26 -20 21 -12 -4 8 15 -7 44 -35 98 -95 103 -147
54 -550 -18 -143 -35 -307 -39 -365 -5 -96 -4 -111 19 -173 l25 -69 -21 5
c-12 3 -49 11 -82 17 -33 6 -89 18 -125 27 -36 8 -99 21 -140 28 -97 17 -171
45 -355 134 -129 63 -213 91 -270 91 -5 0 -11 -23 -12 -51 -2 -28 -5 -63 -8
-77 -3 -15 -12 -74 -21 -132 -14 -92 -25 -143 -41 -187 -4 -10 390 -13 1932
-13 l1937 0 -8 38 c-4 20 -7 55 -6 77 3 89 0 123 -18 200 -10 44 -26 115 -35
158 -19 87 -24 90 -88 53 -53 -30 -312 -123 -477 -171 -69 -20 -190 -47 -270
-61 -80 -13 -161 -30 -180 -36 -19 -6 -44 -12 -55 -14 -34 -4 -248 -54 -295
-68 -55 -18 -194 -34 -360 -42 -69 -3 -152 -9 -185 -14 -38 -5 -65 -4 -72 2
-9 7 -13 7 -13 -1 0 -6 -5 -11 -12 -11 -7 0 17 29 52 65 52 52 65 72 66 98 7
253 34 652 74 1097 5 58 8 164 6 235 -3 72 -5 151 -5 178 l-1 47 -52 1 c-29 0
-75 4 -103 9 l-50 7 60 3 c33 2 -12 7 -100 10 -227 10 -1169 12 -1202 3 -19
-6 6 -10 82 -13 61 -3 -115 -9 -390 -13 -524 -9 -629 -5 -860 33 -66 10 -176
26 -245 35 -68 9 -131 20 -140 25 -8 5 -10 10 -4 10 8 0 9 12 4 38 -56 275
-90 391 -128 434 -16 16 -50 39 -77 49 -43 16 -50 17 -58 4 -20 -36 -42 -15
-76 73 -50 132 -103 182 -177 167 -32 -6 -36 -9 -19 -15 11 -4 31 -19 44 -33
l23 -26 -26 -26 c-14 -14 -26 -21 -26 -15 0 5 -17 10 -37 10 -28 0 -34 -3 -23
-10 13 -9 13 -10 0 -10 -11 0 -11 -3 3 -11 14 -8 17 -18 12 -36 -7 -30 10 -54
33 -46 15 6 15 5 3 -10 -18 -22 -64 -22 -84 1 -21 23 -22 39 -2 22 10 -9 15
-9 15 -1 0 6 -4 11 -9 11 -14 0 -42 61 -34 74 4 6 -1 5 -10 -3 -13 -11 -15
-17 -6 -28 7 -7 9 -17 5 -20 -12 -12 -26 20 -26 60 0 40 7 52 53 82 21 13 25
20 15 26 -20 13 -86 10 -91 -3z m480 -278 c33 -20 59 -56 46 -63 -25 -13 -43
-16 -37 -5 5 8 2 9 -10 5 -10 -4 -40 -7 -67 -7 -31 0 -48 -4 -44 -10 3 -5 15
-10 26 -10 11 0 18 -4 15 -9 -3 -4 3 -19 14 -31 22 -26 25 -40 9 -40 -8 0 -7
-5 1 -15 7 -9 20 -13 29 -10 11 3 10 0 -3 -10 -11 -8 -25 -15 -30 -15 -19 1
-48 28 -41 39 3 6 2 11 -3 11 -5 0 -15 20 -21 44 -6 25 -16 48 -22 52 -9 5
-10 -1 -5 -22 5 -20 4 -26 -3 -19 -19 19 -16 73 4 96 39 42 92 50 142 19z
m-330 -126 c-3 -3 -12 -4 -19 -1 -8 3 -5 6 6 6 11 1 17 -2 13 -5z m232 -128
c17 -30 18 -36 5 -26 -15 13 -16 12 -9 -20 9 -42 22 -60 44 -60 14 0 14 -2 1
-10 -13 -8 -12 -10 3 -10 27 0 49 -24 34 -39 -8 -8 -8 -11 1 -11 20 0 14 -51
-8 -70 -13 -11 -17 -21 -10 -25 13 -8 13 -45 -1 -45 -5 0 -7 -4 -4 -10 6 -9
-7 -14 -27 -11 -4 0 -5 -6 -2 -14 4 -8 10 -13 15 -10 4 3 6 -3 4 -15 -2 -11 0
-22 6 -25 5 -4 9 -12 9 -18 -1 -22 -39 34 -50 71 -5 20 -10 71 -10 113 0 41
-4 100 -9 130 -14 83 -23 155 -19 149 3 -3 15 -23 27 -44z m-619 -41 c10 -12
10 -15 -4 -15 -9 0 -16 7 -16 15 0 8 2 15 4 15 2 0 9 -7 16 -15z m6 -47 c1
-10 -2 -20 -7 -24 -5 -3 -9 2 -9 10 0 9 -4 16 -10 16 -5 0 -10 5 -10 11 0 18
33 5 36 -13z m168 -24 c3 -8 2 -12 -4 -9 -6 3 -10 10 -10 16 0 14 7 11 14 -7z
m26 -62 c10 -17 23 -38 30 -46 6 -9 8 -21 4 -27 -5 -9 -2 -10 11 -5 15 5 16 4
5 -9 -7 -8 -8 -15 -4 -15 5 0 15 -10 23 -21 11 -18 11 -23 -1 -30 -10 -7 -10
-9 0 -9 6 0 12 -9 12 -21 0 -11 4 -17 10 -14 7 4 9 -2 4 -19 -3 -15 -1 -32 5
-40 9 -10 8 -15 -3 -19 -19 -8 -29 8 -33 52 -2 18 -9 43 -15 55 -7 12 -13 28
-14 36 -1 8 -14 48 -29 88 -23 62 -31 72 -51 72 -13 0 -24 4 -24 9 0 21 54 -7
70 -37z m1045 -126 c44 -19 45 -41 4 -77 -17 -15 -28 -32 -24 -38 3 -6 0 -11
-9 -11 -8 0 -24 21 -36 46 -18 37 -20 50 -11 70 12 28 28 30 76 10z m-1282
-26 c9 -11 13 -20 7 -20 -5 0 -14 9 -20 20 -6 11 -9 20 -8 20 2 0 11 -9 21
-20z m2854 3 c-20 -2 -52 -2 -70 0 -17 2 0 4 38 4 39 0 53 -2 32 -4z m906 0
c-7 -2 -21 -2 -30 0 -10 3 -4 5 12 5 17 0 24 -2 18 -5z m-3646 -39 c-3 -3 -12
-4 -19 -1 -8 3 -5 6 6 6 11 1 17 -2 13 -5z m292 -67 c1 -5 -3 -5 -9 -2 -5 3
-10 16 -9 28 0 21 1 21 9 2 5 -11 9 -24 9 -28z m886 23 c3 -6 -1 -7 -9 -4 -18
7 -21 14 -7 14 6 0 13 -4 16 -10z m-535 -52 c0 -6 -7 -5 -15 2 -8 7 -15 17
-15 22 0 6 7 5 15 -2 8 -7 15 -17 15 -22z m530 -15 c0 -3 -18 -3 -40 -1 -52 5
-51 -4 3 -24 l42 -17 -35 0 c-20 -1 -41 4 -48 11 -12 12 -17 60 -7 70 6 6 85
-31 85 -39z m-850 -3 c0 -5 -8 -10 -17 -10 -15 0 -16 2 -3 10 19 12 20 12 20
0z m30 -50 c0 -5 -2 -10 -4 -10 -3 0 -8 5 -11 10 -3 6 -1 10 4 10 6 0 11 -4
11 -10z m741 -144 c33 -10 38 -14 19 -15 -14 0 -43 8 -65 19 -41 21 -29 19 46
-4z m1593 -22 c3 -8 2 -12 -4 -9 -6 3 -10 10 -10 16 0 14 7 11 14 -7z m-1698
-24 c5 1 10 -4 12 -10 3 -9 -1 -9 -17 -1 -11 7 -21 17 -21 24 0 8 3 8 9 -1 4
-8 12 -13 17 -12z m157 -47 c33 -7 46 -23 19 -23 -29 0 -82 21 -82 32 0 6 8 7
18 3 9 -3 29 -9 45 -12z m-11 -38 c13 3 31 -2 42 -10 17 -13 18 -17 6 -28 -10
-9 -12 -9 -6 1 9 14 -10 17 -19 2 -4 -6 -11 -8 -16 -4 -6 3 -3 12 8 21 16 13
16 13 -6 3 -20 -10 -26 -9 -45 11 -11 13 -14 17 -4 10 9 -6 27 -9 40 -6z m178
-24 c3 -1 -15 -9 -39 -16 -49 -15 -76 -9 -42 9 18 10 63 14 81 7z m4344 -936
c9 -44 19 -91 23 -105 3 -14 3 -22 -1 -18 -11 9 -46 148 -46 182 0 44 6 29 24
-59z m-1924 -345 c0 -5 -4 -10 -10 -10 -5 0 -10 5 -10 10 0 6 5 10 10 10 6 0
10 -4 10 -10z"/>
<path d="M2208 2628 c6 -6 18 -8 28 -6 14 3 12 5 -9 10 -19 3 -25 2 -19 -4z"/>
<path d="M3661 2610 c-34 -8 -51 -24 -51 -47 0 -7 -6 -13 -14 -13 -8 0 -18 -4
-21 -10 -7 -12 43 6 61 21 13 11 142 6 202 -7 36 -7 44 9 12 26 -11 6 -20 8
-20 4 0 -3 -16 3 -36 15 -43 25 -45 26 -37 4 6 -17 5 -17 -14 0 -21 18 -30 19
-82 7z"/>
<path d="M3920 2526 c0 -4 7 -14 15 -22 8 -9 15 -11 15 -6 0 5 -7 15 -15 22
-8 7 -15 9 -15 6z"/>
<path d="M3793 2363 c9 -2 23 -2 30 0 6 3 -1 5 -18 5 -16 0 -22 -2 -12 -5z"/>
<path d="M3610 2274 c0 0 5 -15 11 -33 7 -21 18 -31 32 -32 18 -1 19 -2 4 -6
-11 -3 -16 -10 -13 -20 3 -8 6 -21 6 -29 0 -19 126 -20 133 -1 4 9 8 9 14 1
10 -14 923 -26 923 -12 0 4 -33 8 -74 8 -41 0 -78 5 -81 10 -3 6 -33 10 -66
10 -33 0 -68 4 -77 9 -10 5 -48 11 -85 14 -37 2 -71 7 -74 11 -3 3 -26 6 -50
6 -24 0 -74 4 -111 10 -113 16 -492 58 -492 54z m167 -40 c-3 -3 -12 -4 -19
-1 -8 3 -5 6 6 6 11 1 17 -2 13 -5z m26 -31 c-7 -2 -19 -2 -25 0 -7 3 -2 5 12
5 14 0 19 -2 13 -5z m5 -20 c-10 -2 -28 -2 -40 0 -13 2 -5 4 17 4 22 1 32 -1
23 -4z m155 -20 c-7 -2 -19 -2 -25 0 -7 3 -2 5 12 5 14 0 19 -2 13 -5z"/>
<path d="M3667 2103 c-4 -3 -4 -16 -1 -29 3 -12 0 -33 -7 -46 -12 -23 -12 -23
10 -4 12 11 21 31 21 47 0 28 -12 44 -23 32z"/>
<path d="M4380 2087 c0 -8 -3 -29 -6 -46 l-7 -32 89 3 89 3 0 40 0 40 -82 3
c-66 2 -83 0 -83 -11z"/>
<path d="M3865 2080 c-3 -5 -1 -10 4 -10 6 0 11 5 11 10 0 6 -2 10 -4 10 -3 0
-8 -4 -11 -10z"/>
<path d="M3975 2080 c-4 -6 7 -10 25 -10 18 0 29 4 25 10 -3 6 -15 10 -25 10
-10 0 -22 -4 -25 -10z"/>
<path d="M4095 2080 c-4 -6 5 -10 19 -10 14 0 26 -4 26 -10 0 -5 -12 -10 -26
-10 -14 0 -23 -4 -19 -10 15 -24 75 8 75 40 0 13 -67 13 -75 0z"/>
<path d="M4245 2080 c-3 -5 3 -10 14 -10 11 0 23 -4 26 -10 4 -6 -5 -10 -19
-10 -14 0 -26 -4 -26 -10 0 -17 36 -11 59 9 13 11 20 25 16 30 -8 14 -62 14
-70 1z"/>
<path d="M4595 2070 c-8 -13 4 -32 16 -25 12 8 12 35 0 35 -6 0 -13 -4 -16
-10z"/>
<path d="M3800 2000 c9 -6 145 -9 340 -8 195 0 303 4 270 8 -84 12 -628 12
-610 0z"/>
<path d="M2983 1569 c11 -7 23 -7 35 0 14 9 11 10 -18 10 -29 0 -32 -1 -17
-10z"/>
<path d="M3861 1301 c-9 -6 -5 -10 14 -15 33 -9 44 -1 18 12 -11 6 -25 7 -32
3z"/>
<path d="M3800 1276 c0 -9 30 -14 35 -6 4 6 -3 10 -14 10 -12 0 -21 -2 -21 -4z"/>
<path d="M4005 1260 c-3 -6 1 -7 9 -4 18 7 21 14 7 14 -6 0 -13 -4 -16 -10z"/>
<path d="M3707 1247 c-16 -11 -9 -13 47 -12 36 1 69 4 73 8 3 4 -12 7 -35 7
-22 0 -46 2 -54 5 -7 3 -22 0 -31 -8z"/>
<path d="M4072 707 c29 -28 178 -122 178 -112 0 2 -33 27 -74 55 -41 27 -77
54 -81 60 -3 5 -13 10 -21 10 -13 0 -13 -2 -2 -13z"/>
</g>
</svg>
